<?xml version="1.0" standalone="no"?>
<!DOCTYPE svg PUBLIC "-//W3C//DTD SVG 20010904//EN"
 "http://www.w3.org/TR/2001/REC-SVG-20010904/DTD/svg10.dtd">
<svg version="1.0" xmlns="http://www.w3.org/2000/svg"
 width="700.000000pt" height="700.000000pt" viewBox="0 0 700.000000 700.000000"
 preserveAspectRatio="xMidYMid meet">
<metadata>
Created by potrace 1.11, written by Peter Selinger 2001-2013
</metadata>
<g transform="translate(0.000000,700.000000) scale(0.100000,-0.100000)"
fill="#000000" stroke="none">
<path d="M1495 5899 c-48 -6 -86 -13 -150 -24 -199 -37 -451 -150 -625 -282
-399 -302 -626 -769 -614 -1263 4 -147 6 -168 29 -280 63 -307 206 -567 451
-814 58 -58 1668 -1654 1740 -1723 141 -137 230 -183 370 -189 123 -5 252 36
334 107 19 17 182 176 361 355 180 178 331 324 335 324 5 0 169 -159 364 -352
195 -193 378 -365 405 -383 140 -90 336 -83 465 17 20 16 668 655 1443 1424
172 170 223 228 284 320 139 214 206 437 206 694 1 141 -1 165 -28 294 -77
371 -341 702 -700 877 -291 142 -622 171 -938 82 -32 -9 -59 -14 -61 -12 -1 2
-24 40 -51 84 -240 401 -644 665 -1135 740 -151 23 -413 9 -575 -31 -219 -54
-440 -162 -599 -291 -32 -26 -65 -52 -72 -58 -9 -6 -24 0 -51 23 -58 48 -219
155 -298 196 -129 68 -288 121 -460 153 -87 16 -349 24 -430 12z m419 -349
c211 -46 369 -122 541 -261 50 -40 92 -75 95 -78 3 -4 42 -39 88 -79 l83 -72
151 132 c202 174 303 239 474 304 141 53 250 72 424 74 130 2 178 -4 313 -36
9 -2 25 -6 35 -8 34 -8 158 -57 212 -83 199 -99 411 -299 511 -481 l24 -44
-21 -16 c-12 -10 -34 -26 -48 -36 -15 -11 -39 -30 -54 -43 -15 -13 -29 -23
-32 -23 -3 0 -18 13 -35 28 -103 96 -306 204 -475 253 -148 43 -378 64 -510
46 -19 -3 -57 -8 -85 -12 -85 -12 -243 -64 -344 -112 -53 -25 -98 -49 -101
-52 -3 -3 -17 -13 -31 -21 -165 -94 -363 -309 -459 -500 -36 -71 -94 -225
-104 -273 -30 -148 -37 -202 -37 -312 -1 -267 69 -496 222 -726 52 -77 123
-154 403 -432 l340 -339 -340 -335 c-189 -188 -353 -342 -371 -349 -39 -17
-89 -17 -126 -1 -26 11 -435 412 -1523 1494 -453 450 -489 492 -577 668 -188
380 -157 847 79 1205 200 303 527 499 909 543 78 9 279 -4 369 -23z m3746
-1238 c64 -16 160 -62 210 -100 130 -98 220 -268 223 -420 2 -70 0 -75 -25
-95 -27 -20 -29 -20 -63 -4 -19 9 -35 22 -36 29 -7 146 -58 271 -144 351 -71
66 -201 121 -279 119 -35 -1 -81 21 -90 43 -10 27 -7 41 15 69 19 24 27 27 78
25 31 -1 81 -9 111 -17z"/>
<path d="M1495 5079 c-245 -43 -453 -221 -533 -454 -26 -78 -30 -97 -38 -183
-6 -70 -5 -73 24 -102 33 -32 46 -35 86 -20 31 12 53 53 54 105 5 158 110 334
251 420 87 52 137 68 259 79 40 4 91 28 93 44 0 4 2 16 4 27 15 79 -57 109
-200 84z"/>
<path d="M953 4195 c-57 -40 -25 -144 45 -145 33 0 60 17 75 48 36 74 -52 145
-120 97z"/>
</g>
</svg>
